<svg xmlns="http://www.w3.org/2000/svg" width="320" height="320" viewBox="0 0 1200 1200" fill="none"><rect width="1200" height="1200" fill="#EAEAEA" rx="120"/><g opacity="0.8"><circle cx="600" cy="480" r="180" fill="#D9E8FF"/><circle cx="600" cy="460" r="140" fill="#BFD4F7"/><circle cx="600" cy="440" r="100" fill="#A7C4F0"/></g><g opacity="0.9"><path fill="#4A7AC7" d="M420 820c0-110.457 89.543-200 200-200s200 89.543 200 200v60H420v-60Z"/><path fill="#5B8BD8" d="M480 820c0-77.32 62.68-140 140-140s140 62.68 140 140v60H480v-60Z"/></g><circle cx="600" cy="440" r="72" fill="#F3F6FB" stroke="#2F4F8F" stroke-width="10"/><path fill="#2F4F8F" d="M536 432c0-35.346 28.654-64 64-64s64 28.654 64 64c0 24.911-13.887 46.539-34.27 57.39-8.773 4.63-18.497 7.61-28.958 7.61-35.346 0-64-28.654-64-64Z"/><path fill="#1F3B6B" d="M512 482c26 20 56 28 88 24s60-18 80-44c-2 38-14 70-36 96s-54 40-92 40c-36 0-66-12-90-36s-36-60-38-108c14 8 28 18 44 28Z" opacity="0.9"/><rect x="470" y="780" width="260" height="140" rx="32" fill="#EEF2F9" stroke="#2F4F8F" stroke-width="12"/><path fill="#2F4F8F" d="M470 860c34-18 82-30 130-30s96 12 130 30v40H470v-40Z"/><rect x="560" y="820" width="80" height="36" rx="12" fill="#5B8BD8"/><path fill="#C2D6F5" d="M512 640c26 10 56 16 88 16s62-6 88-16l-12 44c-24 8-48 12-76 12s-52-4-76-12l-12-44Z"/><path fill="#A7C4F0" d="M536 530c-12 18-20 40-20 64 0 66.274 53.726 120 120 120 26.838 0 51.686-8.704 71.63-23.432C676 702 640 682 612 650s-46-70-52-120c-8 0-16 0-24 0Z" opacity="0.7"/><rect x="520" y="320" width="160" height="48" rx="24" fill="#2F4F8F" opacity="0.9"/><path fill="#2F4F8F" d="M540 360c0-66.274 53.726-120 120-120 18 0 36 4 52 12-22-38-64-64-112-64-70.692 0-128 57.308-128 128 0 10.78 1.34 21.26 3.88 31.26 16.72-2.88 40.32-8.12 64.12-15.26Z" opacity="0.85"/><circle cx="740" cy="760" r="28" fill="#4A7AC7"/><circle cx="460" cy="760" r="28" fill="#4A7AC7"/><path stroke="#2F4F8F" stroke-width="12" stroke-linecap="round" d="M600 320c-88 0-160 72-160 160"/><path fill="#ffffff" d="M600 952c-120 0-240 24-320 72 12 48 28 80 48 96h544c20-16 36-48 48-96-80-48-200-72-320-72Z" opacity="0.5"/></svg>